<mxfile host="Electron" agent="Mozilla/5.0 (Windows NT 10.0; Win64; x64) AppleWebKit/537.36 (KHTML, like Gecko) draw.io/26.0.4 Chrome/128.0.6613.186 Electron/32.2.5 Safari/537.36" version="26.0.4">
  <diagram name="Страница — 1" id="jLmNi8fub1Ay7QnaOPIB">
    <mxGraphModel dx="3187" dy="5176" grid="1" gridSize="10" guides="1" tooltips="1" connect="1" arrows="1" fold="1" page="1" pageScale="1" pageWidth="2339" pageHeight="3300" math="0" shadow="0">
      <root>
        <mxCell id="0" />
        <mxCell id="1" parent="0" />
        <mxCell id="sFZwGDZiRr09R0-QAi0l-6" value="Инф Система&lt;br&gt;" style="swimlane;html=1;startSize=20;horizontal=0;fillColor=#d5e8d4;strokeColor=#82b366;fillStyle=auto;swimlaneFillColor=#D5E8D4;" parent="1" vertex="1">
          <mxGeometry x="144" y="-36" width="1246" height="156" as="geometry" />
        </mxCell>
        <mxCell id="sFZwGDZiRr09R0-QAi0l-7" value="*5 Сохраняет&lt;br&gt;&amp;nbsp;в журнал учета&lt;br&gt;разрешения" style="rounded=0;whiteSpace=wrap;html=1;fontFamily=Helvetica;fontSize=12;fontColor=#000000;align=center;" parent="sFZwGDZiRr09R0-QAi0l-6" vertex="1">
          <mxGeometry x="356" y="66" width="124" height="45" as="geometry" />
        </mxCell>
        <mxCell id="sFZwGDZiRr09R0-QAi0l-11" value="Технолог&lt;br&gt;" style="swimlane;html=1;startSize=20;horizontal=0;" parent="1" vertex="1">
          <mxGeometry x="143" y="488" width="1247" height="362" as="geometry" />
        </mxCell>
        <mxCell id="sFZwGDZiRr09R0-QAi0l-27" value="&lt;div&gt;3 Рассмотрение предложения по замене материала&lt;/div&gt;" style="rounded=0;whiteSpace=wrap;html=1;fontFamily=Helvetica;fontSize=12;fontColor=#000000;align=center;" parent="sFZwGDZiRr09R0-QAi0l-11" vertex="1">
          <mxGeometry x="237" y="42.49999999999999" width="127.88" height="77" as="geometry" />
        </mxCell>
        <mxCell id="sFZwGDZiRr09R0-QAi0l-26" value="Мастер&lt;br&gt;" style="swimlane;html=1;startSize=20;horizontal=0;" parent="1" vertex="1">
          <mxGeometry x="143" y="241" width="1247" height="247" as="geometry" />
        </mxCell>
        <mxCell id="sFZwGDZiRr09R0-QAi0l-28" value="&lt;div&gt;13 Получает материал&lt;/div&gt;" style="rounded=0;whiteSpace=wrap;html=1;fontFamily=Helvetica;fontSize=12;fontColor=#000000;align=center;" parent="sFZwGDZiRr09R0-QAi0l-26" vertex="1">
          <mxGeometry x="1097" y="79.13" width="115" height="38" as="geometry" />
        </mxCell>
        <mxCell id="sFZwGDZiRr09R0-QAi0l-109" value="&lt;div&gt;7 На основании СП согласует заявку&lt;/div&gt;&lt;div&gt;на получение материала&lt;/div&gt;" style="rounded=0;whiteSpace=wrap;html=1;fontFamily=Helvetica;fontSize=12;fontColor=#000000;align=center;" parent="sFZwGDZiRr09R0-QAi0l-26" vertex="1">
          <mxGeometry x="557" y="59.629999999999995" width="127.88" height="77" as="geometry" />
        </mxCell>
        <mxCell id="sFZwGDZiRr09R0-QAi0l-81" value="Пдг" style="swimlane;html=1;startSize=20;horizontal=0;" parent="1" vertex="1">
          <mxGeometry x="143" y="120" width="1247" height="120" as="geometry" />
        </mxCell>
        <mxCell id="sFZwGDZiRr09R0-QAi0l-83" value="4 Разрешающие записи в электронном журнале" style="rounded=0;whiteSpace=wrap;html=1;fontFamily=Helvetica;fontSize=12;fontColor=#000000;align=center;direction=south;" parent="sFZwGDZiRr09R0-QAi0l-81" vertex="1">
          <mxGeometry x="227" y="34.25" width="143" height="51.5" as="geometry" />
        </mxCell>
        <mxCell id="sFZwGDZiRr09R0-QAi0l-92" value="&lt;div&gt;1 Формирование заявки на материал&lt;/div&gt;" style="rounded=0;whiteSpace=wrap;html=1;fontFamily=Helvetica;fontSize=12;fontColor=#000000;align=center;" parent="sFZwGDZiRr09R0-QAi0l-81" vertex="1">
          <mxGeometry x="47" y="20" width="119.75" height="45" as="geometry" />
        </mxCell>
        <mxCell id="sFZwGDZiRr09R0-QAi0l-110" style="edgeStyle=orthogonalEdgeStyle;rounded=0;orthogonalLoop=1;jettySize=auto;html=1;exitX=1;exitY=0.5;exitDx=0;exitDy=0;" parent="sFZwGDZiRr09R0-QAi0l-81" source="sFZwGDZiRr09R0-QAi0l-100" edge="1">
          <mxGeometry relative="1" as="geometry">
            <mxPoint x="614" y="180" as="targetPoint" />
          </mxGeometry>
        </mxCell>
        <mxCell id="sFZwGDZiRr09R0-QAi0l-100" value="6 Печатает СП" style="rounded=0;whiteSpace=wrap;html=1;fontFamily=Helvetica;fontSize=12;fontColor=#000000;align=center;direction=south;" parent="sFZwGDZiRr09R0-QAi0l-81" vertex="1">
          <mxGeometry x="557" y="20" width="114" height="43" as="geometry" />
        </mxCell>
        <mxCell id="sFZwGDZiRr09R0-QAi0l-108" style="edgeStyle=orthogonalEdgeStyle;rounded=0;orthogonalLoop=1;jettySize=auto;html=1;entryX=0;entryY=0.5;entryDx=0;entryDy=0;" parent="1" source="sFZwGDZiRr09R0-QAi0l-7" target="sFZwGDZiRr09R0-QAi0l-100" edge="1">
          <mxGeometry relative="1" as="geometry" />
        </mxCell>
        <mxCell id="sFZwGDZiRr09R0-QAi0l-116" style="edgeStyle=orthogonalEdgeStyle;rounded=0;orthogonalLoop=1;jettySize=auto;html=1;entryX=0.465;entryY=-0.03;entryDx=0;entryDy=0;entryPerimeter=0;" parent="1" source="sFZwGDZiRr09R0-QAi0l-109" target="sFZwGDZiRr09R0-QAi0l-114" edge="1">
          <mxGeometry relative="1" as="geometry">
            <Array as="points">
              <mxPoint x="756" y="500" />
              <mxPoint x="756" y="500" />
            </Array>
          </mxGeometry>
        </mxCell>
        <mxCell id="lvfHDNrxe1OMVv4uRSni-13" style="edgeStyle=orthogonalEdgeStyle;rounded=0;orthogonalLoop=1;jettySize=auto;html=1;entryX=0;entryY=0.5;entryDx=0;entryDy=0;entryPerimeter=0;exitX=0.5;exitY=1;exitDx=0;exitDy=0;" parent="1" source="sFZwGDZiRr09R0-QAi0l-92" target="sFZwGDZiRr09R0-QAi0l-2" edge="1">
          <mxGeometry relative="1" as="geometry" />
        </mxCell>
        <mxCell id="lvfHDNrxe1OMVv4uRSni-32" style="edgeStyle=orthogonalEdgeStyle;rounded=0;orthogonalLoop=1;jettySize=auto;html=1;entryX=1;entryY=0.5;entryDx=0;entryDy=0;" parent="1" source="sFZwGDZiRr09R0-QAi0l-27" target="sFZwGDZiRr09R0-QAi0l-83" edge="1">
          <mxGeometry relative="1" as="geometry">
            <mxPoint x="443.94000000000005" y="230" as="targetPoint" />
            <Array as="points">
              <mxPoint x="442" y="368" />
              <mxPoint x="441" y="368" />
            </Array>
          </mxGeometry>
        </mxCell>
        <mxCell id="lvfHDNrxe1OMVv4uRSni-33" style="edgeStyle=orthogonalEdgeStyle;rounded=0;orthogonalLoop=1;jettySize=auto;html=1;entryX=0;entryY=0.5;entryDx=0;entryDy=0;" parent="1" source="sFZwGDZiRr09R0-QAi0l-83" target="sFZwGDZiRr09R0-QAi0l-7" edge="1">
          <mxGeometry relative="1" as="geometry" />
        </mxCell>
        <mxCell id="sFZwGDZiRr09R0-QAi0l-1" value="Центральный склалд" style="swimlane;html=1;startSize=20;horizontal=0;" parent="1" vertex="1">
          <mxGeometry x="143" y="850" width="1247" height="348" as="geometry" />
        </mxCell>
        <mxCell id="lvfHDNrxe1OMVv4uRSni-40" style="edgeStyle=orthogonalEdgeStyle;rounded=0;orthogonalLoop=1;jettySize=auto;html=1;entryX=0.5;entryY=1;entryDx=0;entryDy=0;" parent="sFZwGDZiRr09R0-QAi0l-1" source="sFZwGDZiRr09R0-QAi0l-2" target="lvfHDNrxe1OMVv4uRSni-34" edge="1">
          <mxGeometry relative="1" as="geometry" />
        </mxCell>
        <mxCell id="sFZwGDZiRr09R0-QAi0l-2" value="&lt;div&gt;Весь материал&lt;/div&gt;&lt;div&gt;в наличии&lt;/div&gt;" style="strokeWidth=2;html=1;shape=mxgraph.flowchart.decision;whiteSpace=wrap;" parent="sFZwGDZiRr09R0-QAi0l-1" vertex="1">
          <mxGeometry x="230.44" y="152.63" width="140" height="99" as="geometry" />
        </mxCell>
        <mxCell id="sFZwGDZiRr09R0-QAi0l-4" value="да" style="text;html=1;strokeColor=none;fillColor=none;align=center;verticalAlign=middle;whiteSpace=wrap;rounded=0;" parent="sFZwGDZiRr09R0-QAi0l-1" vertex="1">
          <mxGeometry x="286.5" y="288" width="60" height="30" as="geometry" />
        </mxCell>
        <mxCell id="sFZwGDZiRr09R0-QAi0l-5" value="нет" style="text;html=1;strokeColor=none;fillColor=none;align=center;verticalAlign=middle;whiteSpace=wrap;rounded=0;" parent="sFZwGDZiRr09R0-QAi0l-1" vertex="1">
          <mxGeometry x="310.44" y="136.32" width="60" height="30" as="geometry" />
        </mxCell>
        <mxCell id="sFZwGDZiRr09R0-QAi0l-114" value="8 Контроль соответствия материала на складе с указанным в заявке" style="rounded=0;whiteSpace=wrap;html=1;fontFamily=Helvetica;fontSize=12;fontColor=#000000;align=center;" parent="sFZwGDZiRr09R0-QAi0l-1" vertex="1">
          <mxGeometry x="550" y="38.13" width="134.38" height="70" as="geometry" />
        </mxCell>
        <mxCell id="sFZwGDZiRr09R0-QAi0l-120" value="10 Выдает&amp;nbsp; материал цеху потребителю" style="rounded=0;whiteSpace=wrap;html=1;fontFamily=Helvetica;fontSize=12;fontColor=#000000;align=center;" parent="sFZwGDZiRr09R0-QAi0l-1" vertex="1">
          <mxGeometry x="967" y="42.5" width="119.75" height="45" as="geometry" />
        </mxCell>
        <mxCell id="lvfHDNrxe1OMVv4uRSni-2" style="edgeStyle=orthogonalEdgeStyle;rounded=0;orthogonalLoop=1;jettySize=auto;html=1;exitX=1;exitY=0.5;exitDx=0;exitDy=0;exitPerimeter=0;entryX=0.003;entryY=0.674;entryDx=0;entryDy=0;entryPerimeter=0;" parent="sFZwGDZiRr09R0-QAi0l-1" source="sFZwGDZiRr09R0-QAi0l-123" target="sFZwGDZiRr09R0-QAi0l-120" edge="1">
          <mxGeometry relative="1" as="geometry">
            <mxPoint x="996.5" y="73" as="targetPoint" />
          </mxGeometry>
        </mxCell>
        <mxCell id="SBOVYs2c6rbEjtTjCnK6-16" value="" style="edgeStyle=orthogonalEdgeStyle;rounded=0;orthogonalLoop=1;jettySize=auto;html=1;" edge="1" parent="sFZwGDZiRr09R0-QAi0l-1" source="sFZwGDZiRr09R0-QAi0l-123" target="DGoRJQJLonWy01depsPr-4">
          <mxGeometry relative="1" as="geometry">
            <Array as="points">
              <mxPoint x="817" y="160" />
              <mxPoint x="817" y="160" />
            </Array>
          </mxGeometry>
        </mxCell>
        <mxCell id="sFZwGDZiRr09R0-QAi0l-123" value="Имеющийся материал соответствует требованию заявки" style="strokeWidth=2;html=1;shape=mxgraph.flowchart.decision;whiteSpace=wrap;" parent="sFZwGDZiRr09R0-QAi0l-1" vertex="1">
          <mxGeometry x="727" y="9.949999999999989" width="183.5" height="126.37" as="geometry" />
        </mxCell>
        <mxCell id="lvfHDNrxe1OMVv4uRSni-1" style="edgeStyle=orthogonalEdgeStyle;rounded=0;orthogonalLoop=1;jettySize=auto;html=1;entryX=0;entryY=0.5;entryDx=0;entryDy=0;entryPerimeter=0;" parent="sFZwGDZiRr09R0-QAi0l-1" source="sFZwGDZiRr09R0-QAi0l-114" target="sFZwGDZiRr09R0-QAi0l-123" edge="1">
          <mxGeometry relative="1" as="geometry" />
        </mxCell>
        <mxCell id="lvfHDNrxe1OMVv4uRSni-3" value="да" style="text;html=1;strokeColor=none;fillColor=none;align=center;verticalAlign=middle;whiteSpace=wrap;rounded=0;" parent="sFZwGDZiRr09R0-QAi0l-1" vertex="1">
          <mxGeometry x="897" y="8.129999999999995" width="60" height="30" as="geometry" />
        </mxCell>
        <mxCell id="lvfHDNrxe1OMVv4uRSni-10" value="нет" style="text;html=1;strokeColor=none;fillColor=none;align=center;verticalAlign=middle;whiteSpace=wrap;rounded=0;" parent="sFZwGDZiRr09R0-QAi0l-1" vertex="1">
          <mxGeometry x="877" y="166.32" width="60" height="30" as="geometry" />
        </mxCell>
        <mxCell id="lvfHDNrxe1OMVv4uRSni-34" value="2 Заявка на замену материала" style="rounded=0;whiteSpace=wrap;html=1;fontFamily=Helvetica;fontSize=12;fontColor=#000000;align=center;" parent="sFZwGDZiRr09R0-QAi0l-1" vertex="1">
          <mxGeometry x="240.57" y="23.629999999999995" width="119.75" height="45" as="geometry" />
        </mxCell>
        <mxCell id="DGoRJQJLonWy01depsPr-4" value="9 Отклонение заявки" style="rounded=0;whiteSpace=wrap;html=1;fontFamily=Helvetica;fontSize=12;fontColor=#000000;align=center;" parent="sFZwGDZiRr09R0-QAi0l-1" vertex="1">
          <mxGeometry x="757.25" y="230" width="119.75" height="45" as="geometry" />
        </mxCell>
        <mxCell id="lvfHDNrxe1OMVv4uRSni-41" style="edgeStyle=orthogonalEdgeStyle;rounded=0;orthogonalLoop=1;jettySize=auto;html=1;exitX=0.5;exitY=0;exitDx=0;exitDy=0;entryX=0.5;entryY=1;entryDx=0;entryDy=0;" parent="1" source="lvfHDNrxe1OMVv4uRSni-34" target="sFZwGDZiRr09R0-QAi0l-27" edge="1">
          <mxGeometry relative="1" as="geometry" />
        </mxCell>
        <mxCell id="lvfHDNrxe1OMVv4uRSni-42" style="edgeStyle=orthogonalEdgeStyle;rounded=0;orthogonalLoop=1;jettySize=auto;html=1;exitX=0.5;exitY=1;exitDx=0;exitDy=0;exitPerimeter=0;entryX=0.5;entryY=1;entryDx=0;entryDy=0;" parent="1" source="sFZwGDZiRr09R0-QAi0l-2" target="sFZwGDZiRr09R0-QAi0l-100" edge="1">
          <mxGeometry relative="1" as="geometry" />
        </mxCell>
        <mxCell id="SBOVYs2c6rbEjtTjCnK6-1" value="Склад материалов" style="swimlane;html=1;startSize=20;horizontal=0;" vertex="1" parent="1">
          <mxGeometry x="143" y="1198" width="1247" height="182" as="geometry" />
        </mxCell>
        <mxCell id="SBOVYs2c6rbEjtTjCnK6-20" style="edgeStyle=orthogonalEdgeStyle;rounded=0;orthogonalLoop=1;jettySize=auto;html=1;entryX=0;entryY=0.5;entryDx=0;entryDy=0;" edge="1" parent="SBOVYs2c6rbEjtTjCnK6-1" source="SBOVYs2c6rbEjtTjCnK6-17" target="SBOVYs2c6rbEjtTjCnK6-19">
          <mxGeometry relative="1" as="geometry" />
        </mxCell>
        <mxCell id="SBOVYs2c6rbEjtTjCnK6-17" value="11 Получение материала" style="rounded=0;whiteSpace=wrap;html=1;fontFamily=Helvetica;fontSize=12;fontColor=#000000;align=center;" vertex="1" parent="SBOVYs2c6rbEjtTjCnK6-1">
          <mxGeometry x="977" y="32" width="119.75" height="45" as="geometry" />
        </mxCell>
        <mxCell id="SBOVYs2c6rbEjtTjCnK6-19" value="12 Выдача материала" style="rounded=0;whiteSpace=wrap;html=1;fontFamily=Helvetica;fontSize=12;fontColor=#000000;align=center;" vertex="1" parent="SBOVYs2c6rbEjtTjCnK6-1">
          <mxGeometry x="1117" y="32" width="119.75" height="45" as="geometry" />
        </mxCell>
        <mxCell id="SBOVYs2c6rbEjtTjCnK6-18" style="edgeStyle=orthogonalEdgeStyle;rounded=0;orthogonalLoop=1;jettySize=auto;html=1;entryX=0.413;entryY=-0.014;entryDx=0;entryDy=0;entryPerimeter=0;" edge="1" parent="1" source="sFZwGDZiRr09R0-QAi0l-120" target="SBOVYs2c6rbEjtTjCnK6-17">
          <mxGeometry relative="1" as="geometry" />
        </mxCell>
        <mxCell id="SBOVYs2c6rbEjtTjCnK6-22" style="edgeStyle=orthogonalEdgeStyle;rounded=0;orthogonalLoop=1;jettySize=auto;html=1;entryX=0.686;entryY=0.986;entryDx=0;entryDy=0;entryPerimeter=0;" edge="1" parent="1" source="SBOVYs2c6rbEjtTjCnK6-19" target="sFZwGDZiRr09R0-QAi0l-28">
          <mxGeometry relative="1" as="geometry" />
        </mxCell>
      </root>
    </mxGraphModel>
  </diagram>
</mxfile>
